<svg width="32" height="22" viewBox="0 0 32 22" fill="none" xmlns="http://www.w3.org/2000/svg">
<path fill-rule="evenodd" clip-rule="evenodd" d="M9.21913e-07 11.4545C8.94749e-07 11.7653 0.120398 12.0632 0.334712 12.283C0.549025 12.5027 0.8397 12.6261 1.14278 12.6261L28.0965 12.6261L20.9038 19.9975C20.7976 20.1064 20.7133 20.2357 20.6558 20.3781C20.5983 20.5204 20.5687 20.6729 20.5687 20.827C20.5687 20.981 20.5983 21.1335 20.6558 21.2759C20.7133 21.4182 20.7976 21.5475 20.9038 21.6564C21.0101 21.7654 21.1362 21.8518 21.275 21.9107C21.4138 21.9697 21.5626 22 21.7129 22C21.8632 22 22.012 21.9697 22.1508 21.9107C22.2896 21.8518 22.4157 21.7654 22.522 21.6564L31.6643 12.284C31.7707 12.1752 31.8551 12.0459 31.9127 11.9036C31.9703 11.7612 32 11.6086 32 11.4545C32 11.3004 31.9703 11.1479 31.9127 11.0055C31.8551 10.8632 31.7707 10.7339 31.6643 10.6251L22.522 1.25267C22.4157 1.14374 22.2896 1.05733 22.1508 0.998384C22.012 0.939433 21.8632 0.909093 21.7129 0.909093C21.5626 0.909093 21.4138 0.939433 21.275 0.998384C21.1362 1.05733 21.0101 1.14374 20.9038 1.25267C20.7976 1.36159 20.7133 1.4909 20.6558 1.63322C20.5983 1.77554 20.5687 1.92808 20.5687 2.08212C20.5687 2.23617 20.5983 2.38871 20.6558 2.53103C20.7133 2.67334 20.7976 2.80266 20.9038 2.91158L28.0965 10.283L1.14279 10.283C0.8397 10.283 0.549026 10.4064 0.334712 10.6261C0.120399 10.8458 9.49076e-07 11.1438 9.21913e-07 11.4545Z" fill="#2B2A29"/>
</svg>
