<svg width="42" height="40" viewBox="0 0 42 40" fill="none" xmlns="http://www.w3.org/2000/svg">
<path d="M40.761 18.6266L36.6916 14.4207L37.5116 8.62537C37.6232 7.83719 37.0896 7.10272 36.3053 6.96519L30.5409 5.95447L27.798 0.784236C27.425 0.0808497 26.561 -0.199128 25.8464 0.150106L20.588 2.72086L15.33 0.150303C14.6147 -0.199324 13.7515 0.0812432 13.3783 0.784433L10.6354 5.95467L4.87093 6.96538C4.08687 7.10271 3.55309 7.83738 3.66465 8.62557L4.48451 14.4209L0.415097 18.6266C-0.138366 19.1986 -0.138366 20.1066 0.415097 20.6788L4.48431 24.8849L3.66445 30.6804C3.55309 31.4684 4.08668 32.2029 4.87054 32.3406L10.6352 33.3519L13.3783 38.5216C13.7513 39.2248 14.6147 39.5053 15.3298 39.1557L20.5878 36.5857L25.8464 39.1557C26.0548 39.2576 26.2755 39.3058 26.4933 39.3058C27.0228 39.3058 27.5334 39.0197 27.7978 38.5216L30.5409 33.3519L36.3055 32.3406C37.0894 32.2031 37.6232 31.4684 37.5116 30.6804L36.6916 24.8849L40.7612 20.6788C41.3146 20.1066 41.3146 19.1988 40.761 18.6266ZM34.0691 23.3514C33.7527 23.6784 33.6049 24.1335 33.6687 24.5843L34.3898 29.6805L29.3207 30.5699C28.8725 30.6486 28.4854 30.9297 28.2722 31.3317L25.86 35.8776L21.2359 33.6177C21.0315 33.5178 20.8098 33.4678 20.5878 33.4678C20.3661 33.4678 20.1444 33.5178 19.9399 33.6177L15.3163 35.8776L12.9041 31.3317C12.6908 30.9297 12.3038 30.6486 11.8556 30.5699L6.7865 29.6805L7.5074 24.5843C7.57115 24.1337 7.42339 23.6786 7.10681 23.3516L3.52869 19.6529L7.10681 15.9546C7.42319 15.6276 7.57115 15.1725 7.5074 14.7219L6.7865 9.62586L11.8554 8.73713C12.3038 8.65863 12.6908 8.37727 12.9043 7.97531L15.3163 3.42877L19.9397 5.68925C20.3486 5.88935 20.8267 5.88935 21.2359 5.68925L25.8598 3.42877L28.272 7.97531C28.4852 8.37727 28.8723 8.65863 29.3207 8.73713L34.3896 9.62586L33.6685 14.7219C33.6047 15.1727 33.7525 15.6276 34.0691 15.9548L37.6472 19.6529L34.0691 23.3514Z" fill="white"/>
<path d="M15.9015 18.539C17.8718 18.539 19.4745 16.9362 19.4745 14.9664C19.4745 12.9957 17.8718 11.3926 15.9015 11.3926C13.9311 11.3926 12.3281 12.9957 12.3281 14.9664C12.3281 16.9364 13.9313 18.539 15.9015 18.539ZM15.9015 13.7536C16.5699 13.7536 17.1135 14.2976 17.1135 14.9664C17.1135 15.6345 16.5697 16.178 15.9015 16.178C15.233 16.178 14.6891 15.6343 14.6891 14.9664C14.6891 14.2976 15.233 13.7536 15.9015 13.7536Z" fill="white"/>
<path d="M27.716 12.5253C27.2552 12.0643 26.5074 12.0641 26.0468 12.5253L13.461 25.1109C13 25.5719 13 26.3193 13.461 26.7803C13.6916 27.0109 13.9936 27.126 14.2958 27.126C14.5978 27.126 14.9 27.0107 15.1306 26.7803L27.7162 14.1947C28.177 13.7337 28.177 12.9862 27.716 12.5253Z" fill="white"/>
<path d="M25.2748 20.7664C23.3047 20.7664 21.7021 22.3691 21.7021 24.339C21.7021 26.3096 23.3049 27.9128 25.2748 27.9128C27.2454 27.9128 28.8486 26.3096 28.8486 24.339C28.8486 22.3691 27.2454 20.7664 25.2748 20.7664ZM25.2748 25.5519C24.6068 25.5519 24.0632 25.0079 24.0632 24.3392C24.0632 23.6712 24.6068 23.1276 25.2748 23.1276C25.9433 23.1276 26.4875 23.6712 26.4875 24.3392C26.4875 25.0077 25.9435 25.5519 25.2748 25.5519Z" fill="white"/>
</svg>
