<svg width="231" height="59" viewBox="0 0 231 59" fill="none" xmlns="http://www.w3.org/2000/svg">
<path d="M67.7188 32.9665V17.0941C67.7188 16.3295 67.9246 15.7412 68.3315 15.3343C68.7384 14.9276 69.3216 14.7266 70.0912 14.7266H80.6597C81.4244 14.7266 82.0126 14.8884 82.4194 15.2217C82.8263 15.5501 83.0274 16.0255 83.0274 16.6482C83.0274 17.2706 82.8263 17.7511 82.4194 18.0844C82.0126 18.4226 81.4244 18.5892 80.6597 18.5892H72.302V23.4421H79.9832C80.748 23.4421 81.3362 23.6039 81.7381 23.9225C82.14 24.246 82.341 24.7116 82.341 25.3244C82.341 25.9372 82.14 26.4077 81.7381 26.7313C81.3362 27.0548 80.748 27.2215 79.9832 27.2215H72.302V32.9665C72.302 33.7311 72.1058 34.3145 71.7137 34.7164C71.3215 35.1183 70.753 35.3193 70.0177 35.3193C69.2726 35.3193 68.6992 35.1183 68.307 34.7164C67.9149 34.3145 67.7188 33.7311 67.7188 32.9665ZM85.3372 20.7999C85.8275 19.5059 86.5236 18.3834 87.4305 17.4275C88.3324 16.4667 89.4745 15.7167 90.847 15.1727C92.2195 14.6236 93.744 14.354 95.4205 14.354C97.0969 14.354 98.6214 14.6236 99.9939 15.1727C101.366 15.7167 102.509 16.4667 103.41 17.4275C104.317 18.3834 105.013 19.5108 105.509 20.8098C106.004 22.1039 106.249 23.5108 106.249 25.0205C106.249 26.5352 106.004 27.942 105.509 29.2459C105.013 30.545 104.317 31.6772 103.41 32.6332C102.509 33.5889 101.371 34.339 100.004 34.8733C98.6214 35.4174 97.0969 35.6918 95.4205 35.6918C93.744 35.6918 92.2195 35.4223 90.847 34.8831C89.4745 34.339 88.3324 33.5889 87.4305 32.6332C86.5236 31.6772 85.8226 30.545 85.3324 29.2459C84.8373 27.942 84.5921 26.5352 84.5921 25.0205C84.5921 23.5108 84.8423 22.1039 85.3372 20.7999ZM90.8372 29.991C91.9107 31.2165 93.4401 31.8292 95.4205 31.8292C97.4008 31.8292 98.9302 31.2165 100.009 29.991C101.087 28.7655 101.626 27.1087 101.626 25.0205C101.626 22.9373 101.087 21.2804 100.009 20.0548C98.9302 18.8295 97.4008 18.2168 95.4205 18.2168C93.4401 18.2168 91.9107 18.8295 90.8372 20.0548C89.7588 21.2804 89.2148 22.9373 89.2148 25.0205C89.2148 27.1087 89.7588 28.7655 90.8372 29.991ZM108.701 20.7999C109.191 19.5059 109.887 18.3834 110.794 17.4275C111.696 16.4667 112.838 15.7167 114.21 15.1727C115.583 14.6236 117.107 14.354 118.784 14.354C120.46 14.354 121.985 14.6236 123.357 15.1727C124.73 15.7167 125.872 16.4667 126.774 17.4275C127.681 18.3834 128.377 19.5108 128.872 20.8098C129.367 22.1039 129.612 23.5108 129.612 25.0205C129.612 26.5352 129.367 27.942 128.872 29.2459C128.377 30.545 127.681 31.6772 126.774 32.6332C125.872 33.5889 124.735 34.339 123.367 34.8733C121.985 35.4174 120.46 35.6918 118.784 35.6918C117.107 35.6918 115.583 35.4223 114.21 34.8831C112.838 34.339 111.696 33.5889 110.794 32.6332C109.887 31.6772 109.186 30.545 108.696 29.2459C108.201 27.942 107.956 26.5352 107.956 25.0205C107.956 23.5108 108.206 22.1039 108.701 20.7999ZM114.201 29.991C115.274 31.2165 116.804 31.8292 118.784 31.8292C120.764 31.8292 122.294 31.2165 123.372 29.991C124.45 28.7655 124.99 27.1087 124.99 25.0205C124.99 22.9373 124.45 21.2804 123.372 20.0548C122.294 18.8295 120.764 18.2168 118.784 18.2168C116.804 18.2168 115.274 18.8295 114.201 20.0548C113.122 21.2804 112.578 22.9373 112.578 25.0205C112.578 27.1087 113.122 28.7655 114.201 29.991ZM131.893 32.9518V17.0941C131.893 16.3295 132.099 15.7412 132.505 15.3343C132.912 14.9276 133.496 14.7266 134.265 14.7266H139.922C141.407 14.7266 142.74 14.898 143.922 15.2413C145.103 15.5893 146.093 16.0598 146.892 16.6628C147.691 17.2657 148.358 18.006 148.888 18.8736C149.422 19.746 149.804 20.6922 150.044 21.7068C150.284 22.7215 150.407 23.8244 150.407 25.0205C150.407 26.2214 150.284 27.3245 150.044 28.3391C149.804 29.3538 149.422 30.2998 148.888 31.1674C148.358 32.0399 147.691 32.7754 146.892 33.3783C146.093 33.986 145.103 34.4567 143.922 34.8047C142.74 35.1478 141.407 35.3193 139.922 35.3193H134.265C133.496 35.3193 132.912 35.1135 132.505 34.7066C132.099 34.2998 131.893 33.7164 131.893 32.9518ZM136.476 18.5892V31.4567H139.922C143.839 31.4567 145.794 29.3097 145.794 25.0205C145.794 20.7314 143.839 18.5892 139.922 18.5892H136.476ZM152.683 17.0941C152.683 16.3295 152.889 15.7412 153.295 15.3343C153.702 14.9276 154.286 14.7266 155.055 14.7266H162.261C163.457 14.7266 164.516 14.8344 165.437 15.055C166.354 15.2755 167.094 15.5648 167.648 15.9178C168.202 16.2706 168.658 16.6972 169.011 17.1971C169.369 17.6922 169.609 18.1921 169.746 18.6873C169.878 19.1873 169.947 19.7167 169.947 20.2853C169.947 21.3196 169.673 22.2069 169.119 22.9471C168.57 23.6871 167.825 24.2019 166.888 24.4911C168.227 24.893 169.197 25.5156 169.795 26.3636C170.393 27.2117 170.692 28.1921 170.692 29.2999C170.692 29.8978 170.609 30.4665 170.447 31.0204C170.285 31.5695 170.001 32.1086 169.599 32.6429C169.197 33.1723 168.697 33.6331 168.094 34.0204C167.491 34.4076 166.712 34.7213 165.751 34.9615C164.795 35.2017 163.712 35.3193 162.506 35.3193H155.055C154.286 35.3193 153.702 35.1135 153.295 34.7066C152.889 34.2998 152.683 33.7164 152.683 32.9518V17.0941ZM162.506 31.4714C164.854 31.4714 166.026 30.6527 166.026 29.0156C166.026 28.2508 165.771 27.6527 165.266 27.2264C164.756 26.7999 163.996 26.5891 162.982 26.5891H157.266V31.4714H162.506ZM162.849 22.996C163.683 22.996 164.3 22.7999 164.702 22.4029C165.104 22.0058 165.305 21.4764 165.305 20.8146C165.305 20.1137 165.084 19.5696 164.648 19.1775C164.207 18.7853 163.413 18.5892 162.261 18.5892H157.266V22.996H162.849ZM171.738 32.3047L178.13 16.9079C178.732 15.4423 179.777 14.7119 181.257 14.7119C182.732 14.7119 183.772 15.4423 184.375 16.9079L190.767 32.3047C190.938 32.7458 191.026 33.1478 191.026 33.5105C191.026 33.8244 190.924 34.182 190.718 34.5791C190.512 34.9761 190.021 35.2213 189.257 35.3193C189.115 35.339 188.982 35.3487 188.855 35.3487C188.35 35.3487 187.889 35.2116 187.482 34.9468C187.075 34.6772 186.732 34.1773 186.443 33.4369L185.35 30.8097H177.154L176.061 33.4369C175.762 34.1773 175.414 34.6772 175.007 34.9468C174.6 35.2116 174.144 35.3487 173.649 35.3487C173.512 35.3487 173.38 35.339 173.247 35.3193C172.468 35.2213 171.978 34.9761 171.772 34.5791C171.566 34.182 171.463 33.8291 171.463 33.5252C171.463 33.1625 171.556 32.7556 171.738 32.3047ZM183.943 27.2068L181.257 20.5402L178.576 27.2068H183.943ZM193.405 31.5842L202.915 18.5892H195.042C194.278 18.5892 193.689 18.4226 193.282 18.0844C192.876 17.7511 192.675 17.2706 192.675 16.6482C192.675 16.0255 192.876 15.5501 193.282 15.2217C193.689 14.8884 194.278 14.7266 195.042 14.7266H207.121C207.851 14.7266 208.4 14.8736 208.772 15.1629C209.145 15.457 209.331 15.8442 209.331 16.3344C209.331 16.9863 209.052 17.6922 208.488 18.4569L198.964 31.4567H207.121C207.885 31.4567 208.473 31.6234 208.88 31.9518C209.287 32.2802 209.493 32.7607 209.493 33.3783C209.493 34.0007 209.287 34.4812 208.88 34.8145C208.473 35.1527 207.885 35.3193 207.121 35.3193H194.773C194.033 35.3193 193.479 35.1772 193.106 34.8879C192.734 34.6036 192.547 34.2065 192.547 33.7116C192.547 33.0791 192.832 32.3685 193.405 31.5842ZM211.269 32.3047L217.661 16.9079C218.264 15.4423 219.308 14.7119 220.788 14.7119C222.264 14.7119 223.303 15.4423 223.906 16.9079L230.298 32.3047C230.469 32.7458 230.558 33.1478 230.558 33.5105C230.558 33.8244 230.455 34.182 230.249 34.5791C230.043 34.9761 229.553 35.2213 228.788 35.3193C228.646 35.339 228.513 35.3487 228.386 35.3487C227.881 35.3487 227.42 35.2116 227.013 34.9468C226.607 34.6772 226.264 34.1773 225.974 33.4369L224.881 30.8097H216.685L215.592 33.4369C215.293 34.1773 214.945 34.6772 214.538 34.9468C214.131 35.2116 213.676 35.3487 213.18 35.3487C213.043 35.3487 212.911 35.339 212.778 35.3193C211.999 35.2213 211.509 34.9761 211.303 34.5791C211.097 34.182 210.994 33.8291 210.994 33.5252C210.994 33.1625 211.087 32.7556 211.269 32.3047ZM223.474 27.2068L220.788 20.5402L218.107 27.2068H223.474Z" fill="#FEFEFE"/>
<path d="M67.7529 47.0398V39.601C67.7529 39.3143 67.8274 39.0977 67.9762 38.9467C68.125 38.7978 68.3439 38.7235 68.6305 38.7235H73.5022C74.6008 38.7235 75.4522 38.997 76.0519 39.5441C76.6516 40.0912 76.9536 40.8594 76.9536 41.8508C76.9536 42.8445 76.6516 43.6126 76.0519 44.1597C75.4522 44.7069 74.6008 44.9804 73.5022 44.9804H69.4644V47.0398C69.4644 47.3221 69.3899 47.5387 69.2434 47.6897C69.0946 47.8408 68.8845 47.9174 68.6109 47.9174C68.3328 47.9174 68.1206 47.843 67.9741 47.692C67.8252 47.5431 67.7529 47.3243 67.7529 47.0398ZM73.5022 43.5184C74.0801 43.5184 74.5111 43.3718 74.7979 43.0807C75.0845 42.7875 75.2269 42.3783 75.2269 41.853C75.2269 41.3255 75.0845 40.9163 74.7979 40.623C74.5111 40.3319 74.0801 40.1854 73.5022 40.1854H69.4644V43.5184H73.5022ZM89.4041 39.601C89.4041 39.3143 89.4785 39.0977 89.6273 38.9467C89.7762 38.7978 89.9952 38.7235 90.2817 38.7235H95.2957C96.3331 38.7235 97.145 38.9773 97.7294 39.485C98.3115 39.995 98.6047 40.7085 98.6047 41.6276C98.6047 42.3038 98.4167 42.8706 98.0401 43.3303C97.6637 43.7899 97.1734 44.0787 96.5717 44.1991L98.1431 46.7247C98.2611 46.9129 98.3224 47.0923 98.3224 47.263C98.3224 47.3112 98.3094 47.3987 98.2829 47.5301C98.2567 47.6592 98.1386 47.7686 97.9242 47.8539C97.7994 47.9043 97.679 47.9306 97.5587 47.9306C97.1998 47.9306 96.8999 47.7445 96.6612 47.3725L94.8603 44.4486H91.1089V47.0398C91.1089 47.3243 91.0368 47.5431 90.8902 47.692C90.7458 47.843 90.5334 47.9174 90.2555 47.9174C89.9776 47.9174 89.7674 47.843 89.6208 47.692C89.4763 47.5431 89.4041 47.3243 89.4041 47.0398V39.601ZM95.2957 43.0698C95.8385 43.0698 96.2389 42.9429 96.4949 42.6889C96.751 42.4351 96.8781 42.0806 96.8781 41.6276C96.8781 41.1745 96.751 40.82 96.4949 40.5662C96.2389 40.3122 95.8385 40.1854 95.2957 40.1854H91.1089V43.0698H95.2957ZM111.003 41.8005C111.152 41.3255 111.384 40.89 111.699 40.4895C112.012 40.089 112.397 39.7476 112.852 39.461C113.307 39.1742 113.854 38.9488 114.493 38.7869C115.133 38.6249 115.837 38.5439 116.605 38.5439C117.376 38.5439 118.078 38.6249 118.715 38.7869C119.352 38.9488 119.899 39.1742 120.354 39.461C120.81 39.7476 121.195 40.089 121.508 40.4895C121.823 40.89 122.055 41.3278 122.204 41.8049C122.352 42.2798 122.429 42.7853 122.429 43.3193C122.429 43.8555 122.352 44.361 122.204 44.8359C122.055 45.313 121.823 45.7508 121.508 46.1513C121.195 46.5496 120.81 46.8932 120.354 47.1799C119.899 47.4666 119.352 47.6897 118.715 47.8539C118.078 48.0159 117.376 48.0969 116.605 48.0969C115.837 48.0969 115.133 48.0159 114.493 47.8539C113.854 47.6897 113.307 47.4666 112.852 47.1799C112.397 46.8932 112.012 46.5496 111.699 46.1513C111.384 45.7508 111.152 45.313 111.003 44.8359C110.852 44.361 110.777 43.8555 110.777 43.3193C110.777 42.7853 110.852 42.2798 111.003 41.8005ZM112.508 43.3193C112.508 43.6235 112.541 43.9124 112.605 44.186C112.67 44.4595 112.769 44.7222 112.902 44.9716C113.038 45.2212 113.218 45.4465 113.439 45.6479C113.662 45.8492 113.92 46.0243 114.216 46.1731C114.509 46.322 114.861 46.4379 115.266 46.519C115.673 46.5999 116.12 46.6416 116.605 46.6416C117.094 46.6416 117.54 46.5999 117.943 46.519C118.347 46.4379 118.695 46.322 118.991 46.1731C119.286 46.0243 119.545 45.8492 119.768 45.6479C119.989 45.4465 120.168 45.2212 120.302 44.9716C120.438 44.7222 120.536 44.4595 120.602 44.186C120.665 43.9124 120.696 43.6235 120.696 43.3193C120.696 43.0173 120.665 42.7284 120.602 42.4548C120.536 42.1813 120.438 41.9186 120.302 41.6692C120.168 41.4196 119.989 41.1942 119.768 40.9929C119.545 40.7916 119.286 40.6165 118.991 40.4677C118.695 40.3166 118.347 40.2029 117.943 40.1197C117.54 40.0387 117.094 39.9992 116.605 39.9992C116.12 39.9992 115.673 40.0387 115.266 40.1197C114.861 40.2029 114.509 40.3166 114.216 40.4677C113.92 40.6165 113.662 40.7916 113.439 40.9929C113.218 41.1942 113.038 41.4196 112.902 41.6692C112.769 41.9186 112.67 42.1813 112.605 42.4548C112.541 42.7284 112.508 43.0173 112.508 43.3193ZM134.853 39.601C134.853 39.3143 134.928 39.0977 135.077 38.9467C135.225 38.7978 135.444 38.7235 135.731 38.7235H140.104C140.872 38.7235 141.555 38.8394 142.148 39.0757C142.743 39.31 143.225 39.6381 143.592 40.0562C143.96 40.4764 144.236 40.9601 144.422 41.5094C144.608 42.0587 144.702 42.6627 144.702 43.3193C144.702 43.9781 144.608 44.5843 144.422 45.1358C144.236 45.6851 143.96 46.171 143.592 46.5867C143.225 47.0025 142.743 47.3287 142.148 47.5649C141.555 47.7993 140.872 47.9174 140.104 47.9174H135.731C135.444 47.9174 135.225 47.843 135.077 47.692C134.928 47.5431 134.853 47.3243 134.853 47.0398V39.601ZM136.558 46.4621H140.104C141.049 46.4621 141.763 46.1797 142.244 45.6129C142.728 45.0461 142.969 44.2824 142.969 43.3193C142.969 42.3586 142.728 41.5947 142.244 41.0278C141.763 40.4611 141.049 40.1787 140.104 40.1787H136.558V46.4621ZM157.126 43.7811V39.601C157.126 39.3143 157.198 39.0977 157.343 38.9467C157.489 38.7978 157.7 38.7235 157.978 38.7235C158.255 38.7235 158.468 38.7978 158.612 38.9467C158.759 39.0977 158.831 39.3143 158.831 39.601V43.7811C158.831 44.7222 159.067 45.4335 159.538 45.917C160.011 46.4008 160.774 46.6416 161.831 46.6416C162.886 46.6416 163.654 46.3985 164.134 45.9128C164.611 45.429 164.852 44.7178 164.852 43.7811V39.601C164.852 39.3143 164.924 39.0977 165.068 38.9467C165.215 38.7978 165.425 38.7235 165.703 38.7235C165.981 38.7235 166.193 38.7978 166.338 38.9467C166.484 39.0977 166.556 39.3143 166.556 39.601V43.7811C166.556 46.659 164.981 48.0969 161.831 48.0969C158.693 48.0969 157.126 46.659 157.126 43.7811ZM178.985 43.3193C178.985 42.7853 179.06 42.2798 179.211 41.8049C179.359 41.3278 179.591 40.89 179.907 40.4895C180.219 40.089 180.605 39.7476 181.06 39.461C181.515 39.1742 182.062 38.9488 182.699 38.7869C183.336 38.6249 184.039 38.5439 184.807 38.5439C185.975 38.5439 186.995 38.7344 187.873 39.1152C188.146 39.2245 188.317 39.3493 188.389 39.4894C188.459 39.6272 188.494 39.7454 188.494 39.8396C188.494 39.9533 188.461 40.0715 188.398 40.1919C188.269 40.4392 188.061 40.5639 187.77 40.5639C187.621 40.5639 187.444 40.529 187.238 40.4611C186.45 40.1526 185.641 39.9992 184.807 39.9992C184.321 39.9992 183.874 40.0387 183.472 40.1197C183.067 40.2029 182.717 40.3166 182.423 40.4677C182.128 40.6165 181.87 40.7916 181.647 40.9929C181.426 41.1942 181.246 41.4196 181.11 41.6692C180.977 41.9186 180.878 42.1813 180.813 42.4548C180.749 42.7284 180.716 43.0173 180.716 43.3193C180.716 43.6235 180.749 43.9124 180.813 44.186C180.878 44.4595 180.977 44.7222 181.11 44.9716C181.246 45.2212 181.426 45.4465 181.647 45.6479C181.87 45.8492 182.128 46.0243 182.423 46.1731C182.717 46.322 183.067 46.4379 183.472 46.519C183.874 46.5999 184.321 46.6416 184.807 46.6416C185.641 46.6416 186.45 46.4883 187.238 46.1797C187.444 46.1119 187.621 46.077 187.77 46.077C188.061 46.077 188.269 46.2016 188.398 46.449C188.461 46.5693 188.494 46.6853 188.494 46.8012C188.494 46.8953 188.459 47.0136 188.389 47.1536C188.317 47.2959 188.146 47.4185 187.873 47.5258C186.976 47.9065 185.954 48.0969 184.807 48.0969C184.039 48.0969 183.336 48.0159 182.699 47.8539C182.062 47.6897 181.515 47.4666 181.06 47.1799C180.605 46.8932 180.219 46.5496 179.907 46.1513C179.591 45.7508 179.359 45.313 179.211 44.8337C179.06 44.3589 178.985 43.8555 178.985 43.3193ZM200.737 38.9093C200.888 38.7847 201.105 38.7235 201.391 38.7235H209.292C209.577 38.7235 209.795 38.7847 209.944 38.9093C210.095 39.0319 210.17 39.2114 210.17 39.4477C210.17 39.6863 210.095 39.868 209.944 39.9928C209.795 40.1174 209.577 40.1787 209.292 40.1787H206.195V47.0398C206.195 47.3243 206.121 47.5431 205.976 47.692C205.83 47.843 205.62 47.9174 205.342 47.9174C205.064 47.9174 204.852 47.843 204.707 47.692C204.56 47.5431 204.488 47.3243 204.488 47.0398V40.1787H201.391C201.105 40.1787 200.888 40.1174 200.737 39.9928C200.588 39.868 200.514 39.6863 200.514 39.4477C200.514 39.2114 200.588 39.0319 200.737 38.9093ZM222.222 46.3264C222.351 46.079 222.557 45.9544 222.844 45.9544C222.999 45.9544 223.178 45.9893 223.382 46.0571C224.395 46.4466 225.417 46.6416 226.448 46.6416C228.332 46.6416 229.276 46.2038 229.276 45.3262C229.276 44.9344 229.068 44.6411 228.654 44.4486C228.238 44.2559 227.468 44.0874 226.339 43.943C225.559 43.8446 224.903 43.7154 224.367 43.5535C223.831 43.3936 223.406 43.1967 223.091 42.9604C222.776 42.7263 222.55 42.4636 222.415 42.1747C222.277 41.888 222.209 41.5532 222.209 41.1724C222.209 40.7872 222.283 40.4392 222.434 40.1306C222.583 39.8199 222.817 39.5441 223.137 39.3034C223.454 39.0626 223.887 38.8744 224.437 38.743C224.986 38.6096 225.636 38.5439 226.382 38.5439C227.669 38.5439 228.796 38.7126 229.762 39.0494C230.053 39.1392 230.236 39.2508 230.311 39.3843C230.385 39.5157 230.422 39.6294 230.422 39.7236C230.422 39.8352 230.392 39.9533 230.326 40.0825C230.182 40.3561 229.954 40.4917 229.648 40.4917C229.532 40.4917 229.378 40.4677 229.186 40.4151C228.227 40.1372 227.31 39.9992 226.435 39.9992C225.597 39.9992 224.971 40.0912 224.557 40.2773C224.141 40.4632 223.933 40.7609 223.933 41.1724C223.933 41.5357 224.13 41.8071 224.52 41.9887C224.912 42.1703 225.623 42.3278 226.654 42.4614C227.422 42.56 228.07 42.678 228.593 42.8203C229.116 42.9604 229.565 43.1442 229.934 43.3674C230.306 43.5929 230.578 43.8642 230.746 44.1816C230.915 44.5011 231 44.8819 231 45.3262C231 46.2628 230.615 46.9588 229.842 47.414C229.07 47.8692 227.956 48.0969 226.498 48.0969C225.037 48.0969 223.782 47.8714 222.734 47.4228C222.458 47.3133 222.285 47.1865 222.22 47.0464C222.152 46.9042 222.119 46.7881 222.119 46.6984C222.119 46.5802 222.154 46.4554 222.222 46.3264Z" fill="#FEFEFE"/>
<path d="M48.8109 11.5837C48.6196 11.2535 48.7323 10.8299 49.0627 10.6387C49.3929 10.4473 49.8164 10.5602 50.0077 10.8904L54.6335 18.9023C54.8247 19.2325 54.7118 19.656 54.3816 19.8473C54.0512 20.0386 53.6279 19.9259 53.4365 19.5955L48.8109 11.5837ZM4.71907 10.893C4.90874 10.5628 5.33119 10.4486 5.66143 10.6384C5.99167 10.8281 6.10567 11.2504 5.916 11.5807L1.29003 19.5933C1.10036 19.9234 0.678037 20.0375 0.347672 19.8479C0.0175516 19.6582 -0.0964482 19.2358 0.0931016 18.9056L4.71907 10.893ZM25.2675 17.4839C25.4571 17.1535 25.8795 17.0396 26.2097 17.2293C26.5401 17.419 26.6539 17.8412 26.4643 18.1716L17.272 34.0931C17.0823 34.4234 16.66 34.5373 16.3297 34.3477C15.9995 34.158 15.8855 33.7357 16.0752 33.4055L25.2675 17.4839ZM25.2675 22.7541C25.4587 22.4237 25.8823 22.3108 26.2124 22.5022C26.5428 22.6936 26.6557 23.1169 26.4643 23.4472L21.8383 31.4593C21.6469 31.7895 21.2235 31.9024 20.8932 31.7111C20.5631 31.5198 20.4501 31.0963 20.6415 30.766L25.2675 22.7541ZM22.9848 0.347148C23.1745 0.0169049 23.5967 -0.0970948 23.927 0.0925774C24.2573 0.282372 24.3711 0.704696 24.1816 1.03494L1.29003 40.6843C1.10036 41.0146 0.678037 41.1285 0.347672 40.9388C0.0175516 40.7492 -0.0964482 40.3268 0.0931016 39.9965L22.9848 0.347148ZM25.2675 6.93608C25.4587 6.60584 25.8823 6.49306 26.2124 6.68445C26.5428 6.87572 26.6557 7.29914 26.4643 7.62938L8.13966 39.3684C7.94827 39.6987 7.52485 39.8117 7.1946 39.6203C6.86424 39.4289 6.75147 39.0055 6.94285 38.6753L25.2675 6.93608ZM25.2675 12.2085C25.4587 11.8782 25.8823 11.7654 26.2124 11.9567C26.5428 12.1481 26.6557 12.5714 26.4643 12.9018L12.7058 36.7321C12.5144 37.0624 12.0909 37.1754 11.7607 36.984C11.4303 36.7926 11.3176 36.3692 11.5088 36.039L25.2675 12.2085ZM25.2675 1.66567C25.4571 1.33542 25.8795 1.22155 26.2097 1.41122C26.5401 1.60077 26.6539 2.02322 26.4643 2.35334L3.57308 42.0023C3.38341 42.3325 2.96096 42.4465 2.63084 42.2569C2.30047 42.0672 2.18648 41.6449 2.37627 41.3146L25.2675 1.66567ZM13.852 5.61732C14.0434 5.28695 14.4668 5.17417 14.7972 5.36544C15.1274 5.55682 15.2402 5.98025 15.0488 6.31049L1.29003 30.1412C1.09865 30.4716 0.675343 30.5844 0.344978 30.3931C0.0147356 30.2017 -0.0981624 29.7782 0.0931016 29.4481L13.852 5.61732ZM18.4182 2.981C18.6093 2.65064 19.0329 2.53786 19.3631 2.72925C19.6934 2.92051 19.8063 3.34407 19.6149 3.67419L1.29003 35.4139C1.09865 35.7442 0.675343 35.857 0.344978 35.6656C0.0147356 35.4743 -0.0981624 35.0508 0.0931016 34.7207L18.4182 2.981ZM9.28565 8.25632C9.47532 7.9262 9.89777 7.81208 10.228 8.00175C10.5583 8.19154 10.6723 8.61387 10.4826 8.94411L1.29003 24.8662C1.10036 25.1965 0.678037 25.3104 0.347672 25.1207C0.0175516 24.9311 -0.0964482 24.5086 0.0931016 24.1785L9.28565 8.25632ZM22.7371 34.3997C22.3544 34.3997 22.0439 34.0893 22.0439 33.7066C22.0439 33.3239 22.3544 33.0133 22.7371 33.0133H31.9895C32.3723 33.0133 32.6827 33.3239 32.6827 33.7066C32.6827 34.0893 32.3723 34.3997 31.9895 34.3997H22.7371ZM18.1705 55.4905C17.7877 55.4905 17.4773 55.1799 17.4773 54.7973C17.4773 54.4145 17.7877 54.1041 18.1705 54.1041H36.5561C36.9389 54.1041 37.2493 54.4145 37.2493 54.7973C37.2493 55.1799 36.9389 55.4905 36.5561 55.4905H18.1705ZM22.7368 58.1268C22.3541 58.1268 22.0435 57.8162 22.0435 57.4336C22.0435 57.0508 22.3541 56.7404 22.7368 56.7404H31.9897C32.3725 56.7404 32.683 57.0508 32.683 57.4336C32.683 57.8162 32.3725 58.1268 31.9897 58.1268H22.7368ZM4.47234 44.945C4.08969 44.945 3.77904 44.6344 3.77904 44.2518C3.77904 43.8691 4.08969 43.5585 4.47234 43.5585H50.2542C50.6369 43.5585 50.9475 43.8691 50.9475 44.2518C50.9475 44.6344 50.6369 44.945 50.2542 44.945H4.47234ZM9.03843 50.2178C8.65566 50.2178 8.34501 49.9073 8.34501 49.5247C8.34501 49.142 8.65566 48.8315 9.03843 48.8315H45.6881C46.0709 48.8315 46.3816 49.142 46.3816 49.5247C46.3816 49.9073 46.0709 50.2178 45.6881 50.2178H9.03843ZM13.6044 52.8542C13.2217 52.8542 12.9112 52.5436 12.9112 52.161C12.9112 51.7783 13.2217 51.4678 13.6044 51.4678H41.1222C41.5048 51.4678 41.8154 51.7783 41.8154 52.161C41.8154 52.5436 41.5048 52.8542 41.1222 52.8542H13.6044ZM4.47234 47.5815C4.08969 47.5815 3.77904 47.271 3.77904 46.8884C3.77904 46.5057 4.08969 46.1952 4.47234 46.1952H50.2542C50.6369 46.1952 50.9475 46.5057 50.9475 46.8884C50.9475 47.271 50.6369 47.5815 50.2542 47.5815H4.47234ZM13.6048 39.6724C13.222 39.6724 12.9115 39.3618 12.9115 38.9792C12.9115 38.5965 13.222 38.2859 13.6048 38.2859H41.1218C41.5046 38.2859 41.8151 38.5965 41.8151 38.9792C41.8151 39.3618 41.5046 39.6724 41.1218 39.6724H13.6048ZM9.03868 42.3087C8.65602 42.3087 8.34537 41.9981 8.34537 41.6155C8.34537 41.2328 8.65602 40.9222 9.03868 40.9222H45.6879C46.0705 40.9222 46.3812 41.2328 46.3812 41.6155C46.3812 41.9981 46.0705 42.3087 45.6879 42.3087H9.03868ZM18.171 37.0361C17.7883 37.0361 17.4778 36.7255 17.4778 36.3429C17.4778 35.9602 17.7883 35.6496 18.171 35.6496H36.5556C36.9382 35.6496 37.2488 35.9602 37.2488 36.3429C37.2488 36.7255 36.9382 37.0361 36.5556 37.0361H18.171ZM28.2623 18.1738C28.0709 17.8434 28.1838 17.4201 28.5142 17.2288C28.8443 17.0374 29.2678 17.1502 29.4591 17.4805L38.652 33.403C38.8433 33.7331 38.7304 34.1567 38.4002 34.3479C38.0699 34.5393 37.6465 34.4264 37.4551 34.0962L28.2623 18.1738ZM28.2623 23.4439C28.0726 23.1136 28.1865 22.6914 28.5169 22.5017C28.8471 22.3119 29.2694 22.4259 29.4591 22.7563L34.0854 30.7692C34.2751 31.0994 34.161 31.5217 33.8309 31.7114C33.5005 31.9009 33.0782 31.7871 32.8885 31.4568L28.2623 23.4439ZM30.546 1.03824C30.3546 0.708002 30.4675 0.284574 30.7976 0.0931873C31.128 -0.0981993 31.5513 0.0146987 31.7426 0.344941L54.6335 39.9927C54.8247 40.3229 54.7118 40.7464 54.3816 40.9377C54.0512 41.129 53.6279 41.0162 53.4365 40.6859L30.546 1.03824ZM28.2623 7.62889C28.0709 7.29853 28.1838 6.87523 28.5142 6.68384C28.8443 6.49246 29.2678 6.60535 29.4591 6.93559L47.7841 38.6753C47.9753 39.0055 47.8626 39.4289 47.5322 39.6203C47.202 39.8117 46.7785 39.6987 46.5872 39.3684L28.2623 7.62889ZM28.2623 12.9015C28.0709 12.5711 28.1838 12.1478 28.5142 11.9565C28.8443 11.7651 29.2678 11.878 29.4591 12.2081L43.218 36.0393C43.4094 36.3694 43.2965 36.793 42.9662 36.9843C42.636 37.1756 42.2125 37.0626 42.0212 36.7325L28.2623 12.9015ZM28.2623 2.35652C28.0709 2.02615 28.1838 1.60273 28.5142 1.41147C28.8443 1.2202 29.2678 1.33298 29.4591 1.66322L52.3503 41.3116C52.5417 41.6418 52.4289 42.0652 52.0985 42.2566C51.7683 42.448 51.3449 42.335 51.1535 42.0047L28.2623 2.35652ZM39.6783 6.30804C39.4886 5.9778 39.6025 5.55548 39.9328 5.36581C40.2631 5.17601 40.6854 5.29014 40.8752 5.62038L54.6335 29.4505C54.823 29.7807 54.709 30.2031 54.3789 30.3927C54.0485 30.5824 53.6263 30.4685 53.4365 30.1382L39.6783 6.30804ZM35.1123 3.67174C34.9225 3.34149 35.0365 2.91917 35.3669 2.72949C35.697 2.53982 36.1194 2.65382 36.309 2.98406L54.6335 34.7229C54.823 35.0531 54.709 35.4754 54.3789 35.6651C54.0485 35.8548 53.6263 35.7409 53.4365 35.4105L35.1123 3.67174ZM44.2444 8.94705C44.053 8.61693 44.1657 8.19338 44.4961 8.00211C44.8264 7.81073 45.2498 7.9235 45.4412 8.25387L54.6335 24.1752C54.8247 24.5053 54.7118 24.9289 54.3816 25.1201C54.0512 25.3115 53.6279 25.1987 53.4365 24.8684L44.2444 8.94705Z" fill="#FEFEFE"/>
</svg>
