<svg width="231" height="59" viewBox="0 0 231 59" fill="none" xmlns="http://www.w3.org/2000/svg">
<path d="M67.7188 33.6381V17.7658C67.7188 17.0011 67.9246 16.4129 68.3315 16.006C68.7384 15.5992 69.3216 15.3982 70.0912 15.3982H80.6597C81.4244 15.3982 82.0126 15.56 82.4194 15.8933C82.8263 16.2217 83.0274 16.6972 83.0274 17.3198C83.0274 17.9422 82.8263 18.4227 82.4194 18.756C82.0126 19.0942 81.4244 19.2609 80.6597 19.2609H72.302V24.1137H79.9832C80.748 24.1137 81.3362 24.2755 81.7381 24.5941C82.14 24.9176 82.341 25.3833 82.341 25.996C82.341 26.6089 82.14 27.0793 81.7381 27.4029C81.3362 27.7264 80.748 27.8931 79.9832 27.8931H72.302V33.6381C72.302 34.4027 72.1058 34.9862 71.7137 35.388C71.3215 35.7899 70.753 35.991 70.0177 35.991C69.2726 35.991 68.6992 35.7899 68.307 35.388C67.9149 34.9862 67.7188 34.4027 67.7188 33.6381ZM85.3372 21.4716C85.8275 20.1775 86.5236 19.055 87.4305 18.0991C88.3324 17.1384 89.4745 16.3884 90.847 15.8443C92.2195 15.2953 93.744 15.0256 95.4205 15.0256C97.0969 15.0256 98.6214 15.2953 99.9939 15.8443C101.366 16.3884 102.509 17.1384 103.41 18.0991C104.317 19.055 105.013 20.1824 105.509 21.4815C106.004 22.7755 106.249 24.1824 106.249 25.6921C106.249 27.2068 106.004 28.6136 105.509 29.9175C105.013 31.2166 104.317 32.3489 103.41 33.3048C102.509 34.2605 101.371 35.0106 100.004 35.5449C98.6214 36.0891 97.0969 36.3635 95.4205 36.3635C93.744 36.3635 92.2195 36.0939 90.847 35.5547C89.4745 35.0106 88.3324 34.2605 87.4305 33.3048C86.5236 32.3489 85.8226 31.2166 85.3324 29.9175C84.8373 28.6136 84.5921 27.2068 84.5921 25.6921C84.5921 24.1824 84.8423 22.7755 85.3372 21.4716ZM90.8372 30.6626C91.9107 31.8881 93.4401 32.5008 95.4205 32.5008C97.4008 32.5008 98.9302 31.8881 100.009 30.6626C101.087 29.4372 101.626 27.7803 101.626 25.6921C101.626 23.6089 101.087 21.952 100.009 20.7265C98.9302 19.5011 97.4008 18.8884 95.4205 18.8884C93.4401 18.8884 91.9107 19.5011 90.8372 20.7265C89.7588 21.952 89.2148 23.6089 89.2148 25.6921C89.2148 27.7803 89.7588 29.4372 90.8372 30.6626ZM108.701 21.4716C109.191 20.1775 109.887 19.055 110.794 18.0991C111.696 17.1384 112.838 16.3884 114.21 15.8443C115.583 15.2953 117.107 15.0256 118.784 15.0256C120.46 15.0256 121.985 15.2953 123.357 15.8443C124.73 16.3884 125.872 17.1384 126.774 18.0991C127.681 19.055 128.377 20.1824 128.872 21.4815C129.367 22.7755 129.612 24.1824 129.612 25.6921C129.612 27.2068 129.367 28.6136 128.872 29.9175C128.377 31.2166 127.681 32.3489 126.774 33.3048C125.872 34.2605 124.735 35.0106 123.367 35.5449C121.985 36.0891 120.46 36.3635 118.784 36.3635C117.107 36.3635 115.583 36.0939 114.21 35.5547C112.838 35.0106 111.696 34.2605 110.794 33.3048C109.887 32.3489 109.186 31.2166 108.696 29.9175C108.201 28.6136 107.956 27.2068 107.956 25.6921C107.956 24.1824 108.206 22.7755 108.701 21.4716ZM114.201 30.6626C115.274 31.8881 116.804 32.5008 118.784 32.5008C120.764 32.5008 122.294 31.8881 123.372 30.6626C124.45 29.4372 124.99 27.7803 124.99 25.6921C124.99 23.6089 124.45 21.952 123.372 20.7265C122.294 19.5011 120.764 18.8884 118.784 18.8884C116.804 18.8884 115.274 19.5011 114.201 20.7265C113.122 21.952 112.578 23.6089 112.578 25.6921C112.578 27.7803 113.122 29.4372 114.201 30.6626ZM131.893 33.6234V17.7658C131.893 17.0011 132.099 16.4129 132.505 16.006C132.912 15.5992 133.496 15.3982 134.265 15.3982H139.922C141.407 15.3982 142.74 15.5697 143.922 15.9129C145.103 16.2609 146.093 16.7315 146.892 17.3344C147.691 17.9373 148.358 18.6777 148.888 19.5452C149.422 20.4176 149.804 21.3638 150.044 22.3784C150.284 23.3931 150.407 24.496 150.407 25.6921C150.407 26.8931 150.284 27.9961 150.044 29.0107C149.804 30.0254 149.422 30.9715 148.888 31.839C148.358 32.7116 147.691 33.447 146.892 34.0499C146.093 34.6576 145.103 35.1283 143.922 35.4763C142.74 35.8194 141.407 35.991 139.922 35.991H134.265C133.496 35.991 132.912 35.7851 132.505 35.3782C132.099 34.9715 131.893 34.388 131.893 33.6234ZM136.476 19.2609V32.1283H139.922C143.839 32.1283 145.794 29.9813 145.794 25.6921C145.794 21.403 143.839 19.2609 139.922 19.2609H136.476ZM152.683 17.7658C152.683 17.0011 152.889 16.4129 153.295 16.006C153.702 15.5992 154.286 15.3982 155.055 15.3982H162.261C163.457 15.3982 164.516 15.506 165.437 15.7267C166.354 15.9472 167.094 16.2364 167.648 16.5894C168.202 16.9422 168.658 17.3688 169.011 17.8688C169.369 18.3638 169.609 18.8638 169.746 19.3589C169.878 19.8589 169.947 20.3884 169.947 20.9569C169.947 21.9912 169.673 22.8785 169.119 23.6187C168.57 24.3588 167.825 24.8735 166.888 25.1628C168.227 25.5646 169.197 26.1873 169.795 27.0352C170.393 27.8833 170.692 28.8637 170.692 29.9715C170.692 30.5695 170.609 31.1381 170.447 31.6921C170.285 32.2411 170.001 32.7803 169.599 33.3145C169.197 33.844 168.697 34.3047 168.094 34.692C167.491 35.0792 166.712 35.3929 165.751 35.6332C164.795 35.8733 163.712 35.991 162.506 35.991H155.055C154.286 35.991 153.702 35.7851 153.295 35.3782C152.889 34.9715 152.683 34.388 152.683 33.6234V17.7658ZM162.506 32.143C164.854 32.143 166.026 31.3243 166.026 29.6872C166.026 28.9224 165.771 28.3244 165.266 27.898C164.756 27.4715 163.996 27.2608 162.982 27.2608H157.266V32.143H162.506ZM162.849 23.6677C163.683 23.6677 164.3 23.4715 164.702 23.0745C165.104 22.6774 165.305 22.1481 165.305 21.4862C165.305 20.7854 165.084 20.2412 164.648 19.8491C164.207 19.4569 163.413 19.2609 162.261 19.2609H157.266V23.6677H162.849ZM171.738 32.9763L178.13 17.5795C178.732 16.114 179.777 15.3836 181.257 15.3836C182.732 15.3836 183.772 16.114 184.375 17.5795L190.767 32.9763C190.938 33.4175 191.026 33.8195 191.026 34.1822C191.026 34.496 190.924 34.8537 190.718 35.2508C190.512 35.6477 190.021 35.8929 189.257 35.991C189.115 36.0107 188.982 36.0204 188.855 36.0204C188.35 36.0204 187.889 35.8832 187.482 35.6185C187.075 35.3488 186.732 34.8489 186.443 34.1086L185.35 31.4813H177.154L176.061 34.1086C175.762 34.8489 175.414 35.3488 175.007 35.6185C174.6 35.8832 174.144 36.0204 173.649 36.0204C173.512 36.0204 173.38 36.0107 173.247 35.991C172.468 35.8929 171.978 35.6477 171.772 35.2508C171.566 34.8537 171.463 34.5008 171.463 34.1969C171.463 33.8342 171.556 33.4273 171.738 32.9763ZM183.943 27.8784L181.257 21.2118L178.576 27.8784H183.943ZM193.405 32.2558L202.915 19.2609H195.042C194.278 19.2609 193.689 19.0942 193.282 18.756C192.876 18.4227 192.675 17.9422 192.675 17.3198C192.675 16.6972 192.876 16.2217 193.282 15.8933C193.689 15.56 194.278 15.3982 195.042 15.3982H207.121C207.851 15.3982 208.4 15.5452 208.772 15.8345C209.145 16.1286 209.331 16.5158 209.331 17.006C209.331 17.6579 209.052 18.3638 208.488 19.1285L198.964 32.1283H207.121C207.885 32.1283 208.473 32.295 208.88 32.6234C209.287 32.9518 209.493 33.4323 209.493 34.0499C209.493 34.6723 209.287 35.1528 208.88 35.4861C208.473 35.8243 207.885 35.991 207.121 35.991H194.773C194.033 35.991 193.479 35.8488 193.106 35.5596C192.734 35.2753 192.547 34.8782 192.547 34.3832C192.547 33.7508 192.832 33.0401 193.405 32.2558ZM211.269 32.9763L217.661 17.5795C218.264 16.114 219.308 15.3836 220.788 15.3836C222.264 15.3836 223.303 16.114 223.906 17.5795L230.298 32.9763C230.469 33.4175 230.558 33.8195 230.558 34.1822C230.558 34.496 230.455 34.8537 230.249 35.2508C230.043 35.6477 229.553 35.8929 228.788 35.991C228.646 36.0107 228.513 36.0204 228.386 36.0204C227.881 36.0204 227.42 35.8832 227.013 35.6185C226.607 35.3488 226.264 34.8489 225.974 34.1086L224.881 31.4813H216.685L215.592 34.1086C215.293 34.8489 214.945 35.3488 214.538 35.6185C214.131 35.8832 213.676 36.0204 213.18 36.0204C213.043 36.0204 212.911 36.0107 212.778 35.991C211.999 35.8929 211.509 35.6477 211.303 35.2508C211.097 34.8537 210.994 34.5008 210.994 34.1969C210.994 33.8342 211.087 33.4273 211.269 32.9763ZM223.474 27.8784L220.788 21.2118L218.107 27.8784H223.474Z" fill="#FEFEFE"/>
<path d="M67.7529 47.7116V40.2729C67.7529 39.9861 67.8274 39.7695 67.9762 39.6185C68.125 39.4697 68.3439 39.3953 68.6305 39.3953H73.5022C74.6008 39.3953 75.4522 39.6689 76.0519 40.216C76.6516 40.7631 76.9536 41.5313 76.9536 42.5227C76.9536 43.5163 76.6516 44.2844 76.0519 44.8315C75.4522 45.3788 74.6008 45.6523 73.5022 45.6523H69.4644V47.7116C69.4644 47.994 69.3899 48.2106 69.2434 48.3616C69.0946 48.5127 68.8845 48.5892 68.6109 48.5892C68.3328 48.5892 68.1206 48.5149 67.9741 48.3639C67.8252 48.215 67.7529 47.9962 67.7529 47.7116ZM73.5022 44.1903C74.0801 44.1903 74.5111 44.0437 74.7979 43.7525C75.0845 43.4594 75.2269 43.0502 75.2269 42.5249C75.2269 41.9974 75.0845 41.5881 74.7979 41.2949C74.5111 41.0038 74.0801 40.8572 73.5022 40.8572H69.4644V44.1903H73.5022ZM89.4041 40.2729C89.4041 39.9861 89.4785 39.7695 89.6273 39.6185C89.7762 39.4697 89.9952 39.3953 90.2817 39.3953H95.2957C96.3331 39.3953 97.145 39.6492 97.7294 40.1568C98.3115 40.6668 98.6047 41.3803 98.6047 42.2994C98.6047 42.9757 98.4167 43.5425 98.0401 44.0022C97.6637 44.4617 97.1734 44.7506 96.5717 44.871L98.1431 47.3966C98.2611 47.5848 98.3224 47.7642 98.3224 47.9349C98.3224 47.9831 98.3094 48.0705 98.2829 48.2019C98.2567 48.3311 98.1386 48.4405 97.9242 48.5258C97.7994 48.5761 97.679 48.6025 97.5587 48.6025C97.1998 48.6025 96.8999 48.4163 96.6612 48.0443L94.8603 45.1205H91.1089V47.7116C91.1089 47.9962 91.0368 48.215 90.8902 48.3639C90.7458 48.5149 90.5334 48.5892 90.2555 48.5892C89.9776 48.5892 89.7674 48.5149 89.6208 48.3639C89.4763 48.215 89.4041 47.9962 89.4041 47.7116V40.2729ZM95.2957 43.7416C95.8385 43.7416 96.2389 43.6148 96.4949 43.3608C96.751 43.107 96.8781 42.7525 96.8781 42.2994C96.8781 41.8464 96.751 41.4919 96.4949 41.2381C96.2389 40.9841 95.8385 40.8572 95.2957 40.8572H91.1089V43.7416H95.2957ZM111.003 42.4723C111.152 41.9974 111.384 41.5619 111.699 41.1614C112.012 40.7609 112.397 40.4195 112.852 40.1328C113.307 39.8461 113.854 39.6206 114.493 39.4588C115.133 39.2968 115.837 39.2158 116.605 39.2158C117.376 39.2158 118.078 39.2968 118.715 39.4588C119.352 39.6206 119.899 39.8461 120.354 40.1328C120.81 40.4195 121.195 40.7609 121.508 41.1614C121.823 41.5619 122.055 41.9997 122.204 42.4767C122.352 42.9517 122.429 43.4572 122.429 43.9912C122.429 44.5274 122.352 45.0328 122.204 45.5078C122.055 45.9849 121.823 46.4226 121.508 46.8232C121.195 47.2215 120.81 47.5651 120.354 47.8517C119.899 48.1385 119.352 48.3616 118.715 48.5258C118.078 48.6878 117.376 48.7687 116.605 48.7687C115.837 48.7687 115.133 48.6878 114.493 48.5258C113.854 48.3616 113.307 48.1385 112.852 47.8517C112.397 47.5651 112.012 47.2215 111.699 46.8232C111.384 46.4226 111.152 45.9849 111.003 45.5078C110.852 45.0328 110.777 44.5274 110.777 43.9912C110.777 43.4572 110.852 42.9517 111.003 42.4723ZM112.508 43.9912C112.508 44.2953 112.541 44.5843 112.605 44.8579C112.67 45.1314 112.769 45.3941 112.902 45.6435C113.038 45.893 113.218 46.1183 113.439 46.3198C113.662 46.5211 113.92 46.6962 114.216 46.845C114.509 46.9938 114.861 47.1098 115.266 47.1909C115.673 47.2718 116.12 47.3134 116.605 47.3134C117.094 47.3134 117.54 47.2718 117.943 47.1909C118.347 47.1098 118.695 46.9938 118.991 46.845C119.286 46.6962 119.545 46.5211 119.768 46.3198C119.989 46.1183 120.168 45.893 120.302 45.6435C120.438 45.3941 120.536 45.1314 120.602 44.8579C120.665 44.5843 120.696 44.2953 120.696 43.9912C120.696 43.6892 120.665 43.4002 120.602 43.1267C120.536 42.8531 120.438 42.5905 120.302 42.3411C120.168 42.0915 119.989 41.8661 119.768 41.6648C119.545 41.4635 119.286 41.2884 118.991 41.1396C118.695 40.9885 118.347 40.8748 117.943 40.7916C117.54 40.7106 117.094 40.6711 116.605 40.6711C116.12 40.6711 115.673 40.7106 115.266 40.7916C114.861 40.8748 114.509 40.9885 114.216 41.1396C113.92 41.2884 113.662 41.4635 113.439 41.6648C113.218 41.8661 113.038 42.0915 112.902 42.3411C112.769 42.5905 112.67 42.8531 112.605 43.1267C112.541 43.4002 112.508 43.6892 112.508 43.9912ZM134.853 40.2729C134.853 39.9861 134.928 39.7695 135.077 39.6185C135.225 39.4697 135.444 39.3953 135.731 39.3953H140.104C140.872 39.3953 141.555 39.5113 142.148 39.7476C142.743 39.9819 143.225 40.31 143.592 40.7281C143.96 41.1483 144.236 41.632 144.422 42.1813C144.608 42.7306 144.702 43.3346 144.702 43.9912C144.702 44.65 144.608 45.2562 144.422 45.8077C144.236 46.357 143.96 46.8429 143.592 47.2586C143.225 47.6744 142.743 48.0006 142.148 48.2368C141.555 48.4712 140.872 48.5892 140.104 48.5892H135.731C135.444 48.5892 135.225 48.5149 135.077 48.3639C134.928 48.215 134.853 47.9962 134.853 47.7116V40.2729ZM136.558 47.1339H140.104C141.049 47.1339 141.763 46.8516 142.244 46.2848C142.728 45.7179 142.969 44.9542 142.969 43.9912C142.969 43.0305 142.728 42.2666 142.244 41.6997C141.763 41.133 141.049 40.8506 140.104 40.8506H136.558V47.1339ZM157.126 44.4529V40.2729C157.126 39.9861 157.198 39.7695 157.343 39.6185C157.489 39.4697 157.7 39.3953 157.978 39.3953C158.255 39.3953 158.468 39.4697 158.612 39.6185C158.759 39.7695 158.831 39.9861 158.831 40.2729V44.4529C158.831 45.3941 159.067 46.1054 159.538 46.5889C160.011 47.0727 160.774 47.3134 161.831 47.3134C162.886 47.3134 163.654 47.0704 164.134 46.5846C164.611 46.1008 164.852 45.3897 164.852 44.4529V40.2729C164.852 39.9861 164.924 39.7695 165.068 39.6185C165.215 39.4697 165.425 39.3953 165.703 39.3953C165.981 39.3953 166.193 39.4697 166.338 39.6185C166.484 39.7695 166.556 39.9861 166.556 40.2729V44.4529C166.556 47.3308 164.981 48.7687 161.831 48.7687C158.693 48.7687 157.126 47.3308 157.126 44.4529ZM178.985 43.9912C178.985 43.4572 179.06 42.9517 179.211 42.4767C179.359 41.9997 179.591 41.5619 179.907 41.1614C180.219 40.7609 180.605 40.4195 181.06 40.1328C181.515 39.8461 182.062 39.6206 182.699 39.4588C183.336 39.2968 184.039 39.2158 184.807 39.2158C185.975 39.2158 186.995 39.4062 187.873 39.787C188.146 39.8964 188.317 40.0212 188.389 40.1612C188.459 40.2991 188.494 40.4173 188.494 40.5115C188.494 40.6252 188.461 40.7434 188.398 40.8637C188.269 41.1111 188.061 41.2357 187.77 41.2357C187.621 41.2357 187.444 41.2008 187.238 41.133C186.45 40.8244 185.641 40.6711 184.807 40.6711C184.321 40.6711 183.874 40.7106 183.472 40.7916C183.067 40.8748 182.717 40.9885 182.423 41.1396C182.128 41.2884 181.87 41.4635 181.647 41.6648C181.426 41.8661 181.246 42.0915 181.11 42.3411C180.977 42.5905 180.878 42.8531 180.813 43.1267C180.749 43.4002 180.716 43.6892 180.716 43.9912C180.716 44.2953 180.749 44.5843 180.813 44.8579C180.878 45.1314 180.977 45.3941 181.11 45.6435C181.246 45.893 181.426 46.1183 181.647 46.3198C181.87 46.5211 182.128 46.6962 182.423 46.845C182.717 46.9938 183.067 47.1098 183.472 47.1909C183.874 47.2718 184.321 47.3134 184.807 47.3134C185.641 47.3134 186.45 47.1601 187.238 46.8516C187.444 46.7837 187.621 46.7488 187.77 46.7488C188.061 46.7488 188.269 46.8735 188.398 47.1208C188.461 47.2412 188.494 47.3572 188.494 47.4731C188.494 47.5671 188.459 47.6854 188.389 47.8255C188.317 47.9678 188.146 48.0904 187.873 48.1976C186.976 48.5783 185.954 48.7687 184.807 48.7687C184.039 48.7687 183.336 48.6878 182.699 48.5258C182.062 48.3616 181.515 48.1385 181.06 47.8517C180.605 47.5651 180.219 47.2215 179.907 46.8232C179.591 46.4226 179.359 45.9849 179.211 45.5056C179.06 45.0308 178.985 44.5274 178.985 43.9912ZM200.737 39.5812C200.888 39.4566 201.105 39.3953 201.391 39.3953H209.292C209.577 39.3953 209.795 39.4566 209.944 39.5812C210.095 39.7038 210.17 39.8833 210.17 40.1196C210.17 40.3581 210.095 40.5399 209.944 40.6646C209.795 40.7893 209.577 40.8506 209.292 40.8506H206.195V47.7116C206.195 47.9962 206.121 48.215 205.976 48.3639C205.83 48.5149 205.62 48.5892 205.342 48.5892C205.064 48.5892 204.852 48.5149 204.707 48.3639C204.56 48.215 204.488 47.9962 204.488 47.7116V40.8506H201.391C201.105 40.8506 200.888 40.7893 200.737 40.6646C200.588 40.5399 200.514 40.3581 200.514 40.1196C200.514 39.8833 200.588 39.7038 200.737 39.5812ZM222.222 46.9983C222.351 46.7509 222.557 46.6263 222.844 46.6263C222.999 46.6263 223.178 46.6612 223.382 46.729C224.395 47.1185 225.417 47.3134 226.448 47.3134C228.332 47.3134 229.276 46.8757 229.276 45.9981C229.276 45.6063 229.068 45.313 228.654 45.1205C228.238 44.9278 227.468 44.7593 226.339 44.6149C225.559 44.5165 224.903 44.3873 224.367 44.2254C223.831 44.0655 223.406 43.8686 223.091 43.6323C222.776 43.3982 222.55 43.1355 222.415 42.8465C222.277 42.5599 222.209 42.2251 222.209 41.8443C222.209 41.4591 222.283 41.1111 222.434 40.8025C222.583 40.4917 222.817 40.216 223.137 39.9753C223.454 39.7345 223.887 39.5463 224.437 39.4149C224.986 39.2814 225.636 39.2158 226.382 39.2158C227.669 39.2158 228.796 39.3844 229.762 39.7213C230.053 39.811 230.236 39.9227 230.311 40.0562C230.385 40.1876 230.422 40.3013 230.422 40.3955C230.422 40.507 230.392 40.6252 230.326 40.7544C230.182 41.0279 229.954 41.1636 229.648 41.1636C229.532 41.1636 229.378 41.1396 229.186 41.087C228.227 40.8091 227.31 40.6711 226.435 40.6711C225.597 40.6711 224.971 40.7631 224.557 40.9492C224.141 41.1351 223.933 41.4327 223.933 41.8443C223.933 42.2076 224.13 42.4789 224.52 42.6605C224.912 42.8421 225.623 42.9997 226.654 43.1333C227.422 43.2319 228.07 43.3499 228.593 43.4922C229.116 43.6323 229.565 43.8161 229.934 44.0393C230.306 44.2647 230.578 44.5361 230.746 44.8535C230.915 45.1729 231 45.5537 231 45.9981C231 46.9347 230.615 47.6307 229.842 48.0858C229.07 48.5411 227.956 48.7687 226.498 48.7687C225.037 48.7687 223.782 48.5433 222.734 48.0947C222.458 47.9852 222.285 47.8583 222.22 47.7183C222.152 47.5761 222.119 47.46 222.119 47.3703C222.119 47.2521 222.154 47.1273 222.222 46.9983Z" fill="#FEFEFE"/>
<path d="M48.8109 12.2556C48.6196 11.9254 48.7323 11.5018 49.0627 11.3105C49.3929 11.1192 49.8164 11.2321 50.0077 11.5623L54.6335 19.5742C54.8247 19.9043 54.7118 20.3279 54.3816 20.5191C54.0512 20.7105 53.6279 20.5978 53.4365 20.2674L48.8109 12.2556ZM4.71907 11.5649C4.90874 11.2346 5.33119 11.1205 5.66143 11.3103C5.99167 11.5 6.10567 11.9223 5.916 12.2525L1.29003 20.2652C1.10036 20.5953 0.678037 20.7094 0.347672 20.5198C0.0175516 20.3301 -0.0964482 19.9076 0.0931016 19.5775L4.71907 11.5649ZM25.2675 18.1558C25.4571 17.8254 25.8795 17.7115 26.2097 17.9012C26.5401 18.0909 26.6539 18.5131 26.4643 18.8434L17.272 34.765C17.0823 35.0953 16.66 35.2091 16.3297 35.0196C15.9995 34.8299 15.8855 34.4076 16.0752 34.0773L25.2675 18.1558ZM25.2675 23.4259C25.4587 23.0956 25.8823 22.9827 26.2124 23.1741C26.5428 23.3654 26.6557 23.7887 26.4643 24.1191L21.8383 32.1311C21.6469 32.4614 21.2235 32.5743 20.8932 32.383C20.5631 32.1916 20.4501 31.7682 20.6415 31.4378L25.2675 23.4259ZM22.9848 1.01902C23.1745 0.68878 23.5967 0.57478 23.927 0.764452C24.2573 0.954247 24.3711 1.37657 24.1816 1.70681L1.29003 41.3561C1.10036 41.6865 0.678037 41.8004 0.347672 41.6107C0.0175516 41.421 -0.0964482 40.9987 0.0931016 40.6684L22.9848 1.01902ZM25.2675 7.60795C25.4587 7.27771 25.8823 7.16494 26.2124 7.35633C26.5428 7.54759 26.6557 7.97102 26.4643 8.30126L8.13966 40.0403C7.94827 40.3706 7.52485 40.4836 7.1946 40.2922C6.86424 40.1008 6.75147 39.6774 6.94285 39.3471L25.2675 7.60795ZM25.2675 12.8803C25.4587 12.5501 25.8823 12.4373 26.2124 12.6286C26.5428 12.82 26.6557 13.2433 26.4643 13.5736L12.7058 37.404C12.5144 37.7343 12.0909 37.8473 11.7607 37.6559C11.4303 37.4645 11.3176 37.0411 11.5088 36.7108L25.2675 12.8803ZM25.2675 2.33754C25.4571 2.0073 25.8795 1.89342 26.2097 2.0831C26.5401 2.27265 26.6539 2.69509 26.4643 3.02521L3.57308 42.6742C3.38341 43.0044 2.96096 43.1184 2.63084 42.9287C2.30047 42.7391 2.18648 42.3168 2.37627 41.9865L25.2675 2.33754ZM13.852 6.28919C14.0434 5.95883 14.4668 5.84605 14.7972 6.03731C15.1274 6.2287 15.2402 6.65213 15.0488 6.98237L1.29003 30.8131C1.09865 31.1435 0.675343 31.2563 0.344978 31.065C0.0147356 30.8736 -0.0981624 30.4501 0.0931016 30.1199L13.852 6.28919ZM18.4182 3.65288C18.6093 3.32251 19.0329 3.20974 19.3631 3.40112C19.6934 3.59239 19.8063 4.01594 19.6149 4.34606L1.29003 36.0857C1.09865 36.4161 0.675343 36.5289 0.344978 36.3375C0.0147356 36.1462 -0.0981624 35.7227 0.0931016 35.3926L18.4182 3.65288ZM9.28565 8.92819C9.47532 8.59807 9.89777 8.48395 10.228 8.67362C10.5583 8.86342 10.6723 9.28574 10.4826 9.61599L1.29003 25.538C1.10036 25.8684 0.678037 25.9823 0.347672 25.7926C0.0175516 25.6029 -0.0964482 25.1805 0.0931016 24.8504L9.28565 8.92819ZM22.7371 35.0716C22.3544 35.0716 22.0439 34.7612 22.0439 34.3784C22.0439 33.9958 22.3544 33.6851 22.7371 33.6851H31.9895C32.3723 33.6851 32.6827 33.9958 32.6827 34.3784C32.6827 34.7612 32.3723 35.0716 31.9895 35.0716H22.7371ZM18.1705 56.1623C17.7877 56.1623 17.4773 55.8518 17.4773 55.4692C17.4773 55.0864 17.7877 54.776 18.1705 54.776H36.5561C36.9389 54.776 37.2493 55.0864 37.2493 55.4692C37.2493 55.8518 36.9389 56.1623 36.5561 56.1623H18.1705ZM22.7368 58.7986C22.3541 58.7986 22.0435 58.4881 22.0435 58.1055C22.0435 57.7227 22.3541 57.4123 22.7368 57.4123H31.9897C32.3725 57.4123 32.683 57.7227 32.683 58.1055C32.683 58.4881 32.3725 58.7986 31.9897 58.7986H22.7368ZM4.47234 45.6169C4.08969 45.6169 3.77904 45.3063 3.77904 44.9237C3.77904 44.541 4.08969 44.2304 4.47234 44.2304H50.2542C50.6369 44.2304 50.9475 44.541 50.9475 44.9237C50.9475 45.3063 50.6369 45.6169 50.2542 45.6169H4.47234ZM9.03843 50.8897C8.65566 50.8897 8.34501 50.5792 8.34501 50.1965C8.34501 49.8139 8.65566 49.5034 9.03843 49.5034H45.6881C46.0709 49.5034 46.3816 49.8139 46.3816 50.1965C46.3816 50.5792 46.0709 50.8897 45.6881 50.8897H9.03843ZM13.6044 53.526C13.2217 53.526 12.9112 53.2155 12.9112 52.8329C12.9112 52.4502 13.2217 52.1397 13.6044 52.1397H41.1222C41.5048 52.1397 41.8154 52.4502 41.8154 52.8329C41.8154 53.2155 41.5048 53.526 41.1222 53.526H13.6044ZM4.47234 48.2534C4.08969 48.2534 3.77904 47.9429 3.77904 47.5602C3.77904 47.1776 4.08969 46.867 4.47234 46.867H50.2542C50.6369 46.867 50.9475 47.1776 50.9475 47.5602C50.9475 47.9429 50.6369 48.2534 50.2542 48.2534H4.47234ZM13.6048 40.3442C13.222 40.3442 12.9115 40.0337 12.9115 39.6511C12.9115 39.2684 13.222 38.9578 13.6048 38.9578H41.1218C41.5046 38.9578 41.8151 39.2684 41.8151 39.6511C41.8151 40.0337 41.5046 40.3442 41.1218 40.3442H13.6048ZM9.03868 42.9805C8.65602 42.9805 8.34537 42.67 8.34537 42.2874C8.34537 41.9047 8.65602 41.5941 9.03868 41.5941H45.6879C46.0705 41.5941 46.3812 41.9047 46.3812 42.2874C46.3812 42.67 46.0705 42.9805 45.6879 42.9805H9.03868ZM18.171 37.7079C17.7883 37.7079 17.4778 37.3974 17.4778 37.0147C17.4778 36.6321 17.7883 36.3214 18.171 36.3214H36.5556C36.9382 36.3214 37.2488 36.6321 37.2488 37.0147C37.2488 37.3974 36.9382 37.7079 36.5556 37.7079H18.171ZM28.2623 18.8456C28.0709 18.5153 28.1838 18.092 28.5142 17.9007C28.8443 17.7093 29.2678 17.8221 29.4591 18.1523L38.652 34.0749C38.8433 34.405 38.7304 34.8286 38.4002 35.0198C38.0699 35.2112 37.6465 35.0983 37.4551 34.7681L28.2623 18.8456ZM28.2623 24.1158C28.0726 23.7854 28.1865 23.3632 28.5169 23.1736C28.8471 22.9838 29.2694 23.0978 29.4591 23.4281L34.0854 31.441C34.2751 31.7713 34.161 32.1936 33.8309 32.3833C33.5005 32.5728 33.0782 32.4589 32.8885 32.1287L28.2623 24.1158ZM30.546 1.71012C30.3546 1.37988 30.4675 0.956449 30.7976 0.765062C31.128 0.573676 31.5513 0.686574 31.7426 1.01682L54.6335 40.6646C54.8247 40.9948 54.7118 41.4182 54.3816 41.6096C54.0512 41.8009 53.6279 41.6881 53.4365 41.3577L30.546 1.71012ZM28.2623 8.30077C28.0709 7.9704 28.1838 7.5471 28.5142 7.35572C28.8443 7.16433 29.2678 7.27722 29.4591 7.60746L47.7841 39.3471C47.9753 39.6774 47.8626 40.1008 47.5322 40.2922C47.202 40.4836 46.7785 40.3706 46.5872 40.0403L28.2623 8.30077ZM28.2623 13.5734C28.0709 13.243 28.1838 12.8197 28.5142 12.6283C28.8443 12.4369 29.2678 12.5498 29.4591 12.88L43.218 36.7112C43.4094 37.0413 43.2965 37.4649 42.9662 37.6561C42.636 37.8475 42.2125 37.7345 42.0212 37.4044L28.2623 13.5734ZM28.2623 3.02839C28.0709 2.69803 28.1838 2.27461 28.5142 2.08334C28.8443 1.89208 29.2678 2.00485 29.4591 2.3351L52.3503 41.9835C52.5417 42.3137 52.4289 42.7371 52.0985 42.9285C51.7683 43.1199 51.3449 43.0069 51.1535 42.6766L28.2623 3.02839ZM39.6783 6.97992C39.4886 6.64967 39.6025 6.22735 39.9328 6.03768C40.2631 5.84789 40.6854 5.96201 40.8752 6.29225L54.6335 30.1224C54.823 30.4526 54.709 30.875 54.3789 31.0646C54.0485 31.2543 53.6263 31.1404 53.4365 30.8101L39.6783 6.97992ZM35.1123 4.34361C34.9225 4.01337 35.0365 3.59104 35.3669 3.40137C35.697 3.2117 36.1194 3.3257 36.309 3.65594L54.6335 35.3948C54.823 35.725 54.709 36.1473 54.3789 36.337C54.0485 36.5267 53.6263 36.4128 53.4365 36.0824L35.1123 4.34361ZM44.2444 9.61892C44.053 9.2888 44.1657 8.86525 44.4961 8.67399C44.8264 8.4826 45.2498 8.59538 45.4412 8.92574L54.6335 24.8471C54.8247 25.1772 54.7118 25.6007 54.3816 25.792C54.0512 25.9834 53.6279 25.8706 53.4365 25.5402L44.2444 9.61892Z" fill="#FEFEFE"/>
</svg>
