<svg width="385" height="409" viewBox="0 0 385 409" fill="none" xmlns="http://www.w3.org/2000/svg">
<mask id="mask0" mask-type="alpha" maskUnits="userSpaceOnUse" x="0" y="0" width="385" height="409">
<path opacity="0.42" d="M343.384 81.5071C342.037 79.1834 342.831 76.2032 345.155 74.8574C347.478 73.5107 350.457 74.3051 351.803 76.6288L384.345 133.003C385.691 135.326 384.896 138.306 382.573 139.652C380.249 140.999 377.271 140.205 375.925 137.881L343.384 81.5071ZM33.1985 76.6469C34.5329 74.3232 37.5048 73.5202 39.828 74.8556C42.1513 76.1902 42.9533 79.1618 41.6189 81.4855L9.07534 137.865C7.741 140.188 4.76997 140.991 2.44586 139.656C0.123475 138.322 -0.67851 135.349 0.654967 133.027L33.1985 76.6469ZM177.756 123.023C179.09 120.698 182.061 119.897 184.385 121.231C186.709 122.566 187.51 125.537 186.175 127.861L121.508 239.891C120.173 242.215 117.202 243.016 114.879 241.682C112.556 240.348 111.754 237.376 113.088 235.052L177.756 123.023ZM177.756 160.105C179.101 157.781 182.081 156.986 184.404 158.333C186.728 159.68 187.522 162.658 186.175 164.983L153.632 221.358C152.285 223.682 149.307 224.476 146.983 223.131C144.661 221.784 143.866 218.805 145.212 216.48L177.756 160.105ZM161.697 2.44265C163.032 0.118949 166.002 -0.683193 168.326 0.651407C170.649 1.98687 171.45 4.95848 170.117 7.28218L9.07534 286.269C7.741 288.593 4.76997 289.394 2.44586 288.06C0.123475 286.725 -0.67851 283.754 0.654967 281.429L161.697 2.44265ZM177.756 48.8046C179.101 46.4809 182.081 45.6874 184.404 47.0341C186.728 48.3799 187.522 51.3593 186.175 53.683L57.2623 277.01C55.9159 279.334 52.9371 280.129 50.6139 278.782C48.2897 277.436 47.4964 274.456 48.8428 272.132L177.756 48.8046ZM177.756 85.9029C179.101 83.5792 182.081 82.7857 184.404 84.1315C186.728 85.4781 187.522 88.4566 186.175 90.7812L89.3846 258.46C88.0382 260.784 85.0594 261.579 82.7362 260.232C80.4121 258.886 79.6187 255.906 80.9643 253.582L177.756 85.9029ZM177.756 11.7202C179.09 9.3965 182.061 8.59524 184.385 9.92984C186.709 11.2636 187.51 14.236 186.175 16.5589L25.1365 295.543C23.8022 297.866 20.8303 298.668 18.5079 297.334C16.1838 295.999 15.3818 293.028 16.717 290.704L177.756 11.7202ZM97.4484 39.5254C98.7948 37.2008 101.774 36.4073 104.098 37.7531C106.421 39.0997 107.214 42.0791 105.868 44.4028L9.07534 212.084C7.72894 214.409 4.75102 215.202 2.42691 213.856C0.103665 212.51 -0.69057 209.53 0.654967 207.207L97.4484 39.5254ZM129.572 20.9754C130.916 18.6508 133.896 17.8573 136.219 19.2039C138.542 20.5497 139.337 23.53 137.99 25.8528L9.07534 249.184C7.72894 251.509 4.75102 252.302 2.42691 250.956C0.103665 249.61 -0.69057 246.63 0.654967 244.307L129.572 20.9754ZM65.3243 58.0943C66.6587 55.7715 69.6306 54.9685 71.9538 56.3031C74.2771 57.6385 75.079 60.6101 73.7447 62.9338L9.07534 174.967C7.741 177.292 4.76997 178.093 2.44586 176.758C0.123475 175.424 -0.67851 172.451 0.654967 170.128L65.3243 58.0943ZM159.955 242.048C157.263 242.048 155.078 239.864 155.078 237.171C155.078 234.478 157.263 232.293 159.955 232.293H225.045C227.738 232.293 229.922 234.478 229.922 237.171C229.922 239.864 227.738 242.048 225.045 242.048H159.955ZM127.829 390.45C125.136 390.45 122.952 388.265 122.952 385.573C122.952 382.879 125.136 380.695 127.829 380.695H257.171C259.864 380.695 262.048 382.879 262.048 385.573C262.048 388.265 259.864 390.45 257.171 390.45H127.829ZM159.953 409C157.26 409 155.076 406.815 155.076 404.123C155.076 401.429 157.26 399.245 159.953 399.245H225.047C227.74 399.245 229.924 401.429 229.924 404.123C229.924 406.815 227.74 409 225.047 409H159.953ZM31.4628 316.248C28.7708 316.248 26.5854 314.063 26.5854 311.371C26.5854 308.678 28.7708 306.493 31.4628 306.493H353.537C356.229 306.493 358.415 308.678 358.415 311.371C358.415 314.063 356.229 316.248 353.537 316.248H31.4628ZM63.5851 353.35C60.8923 353.35 58.7069 351.165 58.7069 348.473C58.7069 345.78 60.8923 343.595 63.5851 343.595H321.415C324.108 343.595 326.293 345.78 326.293 348.473C326.293 351.165 324.108 353.35 321.415 353.35H63.5851ZM95.7066 371.9C93.0147 371.9 90.8301 369.715 90.8301 367.023C90.8301 364.33 93.0147 362.145 95.7066 362.145H289.293C291.985 362.145 294.17 364.33 294.17 367.023C294.17 369.715 291.985 371.9 289.293 371.9H95.7066ZM31.4628 334.8C28.7708 334.8 26.5854 332.615 26.5854 329.923C26.5854 327.23 28.7708 325.045 31.4628 325.045H353.537C356.229 325.045 358.415 327.23 358.415 329.923C358.415 332.615 356.229 334.8 353.537 334.8H31.4628ZM95.7092 279.148C93.0164 279.148 90.8318 276.963 90.8318 274.271C90.8318 271.578 93.0164 269.393 95.7092 269.393H289.291C291.984 269.393 294.168 271.578 294.168 274.271C294.168 276.963 291.984 279.148 289.291 279.148H95.7092ZM63.5868 297.698C60.8949 297.698 58.7095 295.513 58.7095 292.821C58.7095 290.128 60.8949 287.943 63.5868 287.943H321.413C324.105 287.943 326.291 290.128 326.291 292.821C326.291 295.513 324.105 297.698 321.413 297.698H63.5868ZM127.832 260.598C125.14 260.598 122.956 258.413 122.956 255.721C122.956 253.028 125.14 250.843 127.832 250.843H257.168C259.86 250.843 262.044 253.028 262.044 255.721C262.044 258.413 259.86 260.598 257.168 260.598H127.832ZM198.825 127.877C197.478 125.552 198.272 122.574 200.596 121.228C202.919 119.881 205.899 120.675 207.244 122.999L271.916 235.035C273.262 237.358 272.467 240.338 270.144 241.684C267.821 243.031 264.842 242.236 263.496 239.913L198.825 127.877ZM198.825 164.96C197.49 162.635 198.291 159.664 200.615 158.33C202.939 156.994 205.91 157.796 207.244 160.121L239.79 216.502C241.125 218.826 240.322 221.798 237.999 223.132C235.675 224.466 232.704 223.665 231.37 221.341L198.825 164.96ZM214.89 7.30545C213.544 4.98174 214.338 2.00236 216.66 0.655698C218.984 -0.690964 221.962 0.103425 223.309 2.42713L384.345 281.402C385.691 283.726 384.896 286.705 382.573 288.052C380.249 289.398 377.271 288.604 375.925 286.28L214.89 7.30545ZM198.825 53.6795C197.478 51.355 198.272 48.3765 200.596 47.0298C202.919 45.6831 205.899 46.4775 207.244 48.8012L336.16 272.132C337.505 274.456 336.712 277.436 334.388 278.782C332.065 280.129 329.086 279.334 327.739 277.01L198.825 53.6795ZM198.825 90.7795C197.478 88.4549 198.272 85.4764 200.596 84.1297C202.919 82.7831 205.899 83.5775 207.244 85.9003L304.037 253.585C305.384 255.908 304.59 258.888 302.266 260.234C299.943 261.581 296.964 260.785 295.618 258.463L198.825 90.7795ZM198.825 16.5813C197.478 14.2567 198.272 11.2774 200.596 9.93156C202.919 8.58576 205.899 9.37929 207.244 11.703L368.283 290.682C369.629 293.006 368.836 295.986 366.512 297.332C364.189 298.679 361.21 297.884 359.863 295.56L198.825 16.5813ZM279.136 44.3856C277.801 42.0619 278.602 39.0903 280.926 37.7557C283.25 36.4202 286.221 37.2232 287.556 39.5469L384.345 207.224C385.678 209.548 384.877 212.519 382.554 213.854C380.23 215.188 377.26 214.387 375.925 212.063L279.136 44.3856ZM247.014 25.8356C245.679 23.5119 246.481 20.5403 248.805 19.2057C251.127 17.8711 254.099 18.6732 255.433 20.9969L384.345 244.322C385.678 246.646 384.877 249.617 382.554 250.952C380.23 252.287 377.26 251.485 375.925 249.161L247.014 25.8356ZM311.258 62.9545C309.911 60.6317 310.705 57.6514 313.029 56.3056C315.352 54.959 318.331 55.7525 319.677 58.0771L384.345 170.105C385.691 172.428 384.896 175.408 382.573 176.754C380.249 178.101 377.271 177.307 375.925 174.982L311.258 62.9545Z" fill="white"/>
</mask>
<g mask="url(#mask0)">
<rect x="-97" y="-3" width="512" height="199" fill="#7BA5C5"/>
</g>
</svg>
