<svg width="42" height="53" viewBox="0 0 42 53" fill="none" xmlns="http://www.w3.org/2000/svg">
<path d="M40.7196 18.5303L36.7358 14.4127L37.5382 8.74123C37.661 7.87379 37.0738 7.06525 36.2107 6.91411L30.5682 5.92497L27.8823 0.863032C27.4717 0.0893521 26.5209 -0.219427 25.7345 0.165356L20.5887 2.68063L15.4417 0.165356C14.6546 -0.219427 13.7046 0.0895686 13.2939 0.863465L10.6091 5.92497L4.96594 6.91411C4.10304 7.06525 3.51558 7.87379 3.63836 8.74123L4.44062 14.4127L0.456808 18.5303C-0.152305 19.16 -0.152305 20.1591 0.457024 20.7888L4.44062 24.906L3.63836 30.5805C3.5158 31.4478 4.10304 32.2563 4.96594 32.4074L9.48221 33.1991V50.7629C9.48221 51.3257 9.77367 51.8484 10.2524 52.1442C10.5131 52.3055 10.8094 52.3869 11.1062 52.3869C11.3544 52.3869 11.6032 52.3302 11.8325 52.2154L20.5889 47.8388L29.3441 52.2154C29.8473 52.467 30.4454 52.4402 30.9242 52.1442C31.4029 51.8482 31.6944 51.3255 31.6944 50.7627V33.1993L36.2109 32.4072C37.0738 32.2559 37.661 31.4475 37.5385 30.5801L36.736 24.9056L40.7196 20.7886C41.3285 20.1593 41.3285 19.16 40.7196 18.5303ZM21.315 44.5704C20.8581 44.342 20.32 44.3418 19.8627 44.5704L12.7302 48.1355V37.3942L13.2941 38.4572C13.7046 39.2313 14.6557 39.5399 15.4421 39.1549L20.5889 36.6379L25.7343 39.1549C25.9638 39.2671 26.2072 39.3203 26.4469 39.3203C27.0293 39.3203 27.5915 39.0055 27.8825 38.4574L28.4464 37.3953V48.1355L21.315 44.5704ZM33.8493 23.2179C33.5009 23.578 33.3383 24.0786 33.4085 24.5747L34.102 29.4795L29.2255 30.3345C28.7322 30.4209 28.3063 30.7304 28.0713 31.1728L25.7498 35.5468L21.3024 33.3712C21.0772 33.2612 20.833 33.206 20.5887 33.206C20.3445 33.206 20.1002 33.261 19.8752 33.3712L15.4267 35.5468L13.1061 31.173C12.8714 30.7304 12.4455 30.4209 11.952 30.3345L7.07434 29.4795L7.76768 24.5745C7.83784 24.0786 7.67522 23.5778 7.32682 23.2179L3.88369 19.6594L7.32703 16.1004C7.67522 15.7403 7.83784 15.2397 7.76768 14.7438L7.07434 9.84209L11.952 8.987C12.4455 8.9006 12.8714 8.59095 13.1064 8.14836L15.427 3.77326L19.8757 5.94728C20.3256 6.16728 20.852 6.16728 21.302 5.94728L25.7494 3.77326L28.0713 8.14857C28.306 8.59095 28.732 8.90038 29.2255 8.987L34.102 9.84188L33.4085 14.7436C33.3383 15.2397 33.5009 15.7403 33.8491 16.1004L37.2925 19.6594L33.8493 23.2179Z" fill="white"/>
<path d="M20.5892 8.5542C14.4649 8.5542 9.48242 13.5358 9.48242 19.6592C9.48242 25.7839 14.4649 30.7666 20.5892 30.7666C26.7126 30.7666 31.6944 25.7839 31.6944 19.6592C31.6944 13.5358 26.7126 8.5542 20.5892 8.5542ZM20.5892 27.5186C16.2559 27.5186 12.7304 23.9929 12.7304 19.6592C12.7304 15.3268 16.2559 11.8022 20.5892 11.8022C24.9216 11.8022 28.4464 15.3268 28.4464 19.6592C28.4464 23.9929 24.9216 27.5186 20.5892 27.5186Z" fill="white"/>
<path d="M23.8995 15.5395L19.1022 20.3358L17.2766 18.5123C16.6421 17.8783 15.6138 17.879 14.9798 18.5136C14.346 19.1483 14.3466 20.1764 14.9813 20.8102L17.955 23.7806C18.272 24.0974 18.6873 24.2557 19.1026 24.2557C19.5182 24.2557 19.9339 24.0972 20.2509 23.7802L26.1959 17.8365C26.8303 17.2025 26.8303 16.1742 26.1961 15.5397C25.5621 14.9055 24.5338 14.9053 23.8995 15.5395Z" fill="white"/>
</svg>
