<svg width="48" height="33" viewBox="0 0 48 33" fill="none" xmlns="http://www.w3.org/2000/svg">
<path d="M47.6042 16.4789L39.5371 8.01941C39.2723 7.74158 38.9076 7.58478 38.5267 7.58478H33.3716V1.42721C33.3716 0.63901 32.742 0 31.9654 0H5.84616C5.06953 0 4.43991 0.63901 4.43991 1.42721V5.71018H3.37547C2.59884 5.71018 1.96922 6.34919 1.96922 7.13739C1.96922 7.92559 2.59884 8.5646 3.37547 8.5646H4.43991V11.4204H1.40625C0.629625 11.4204 0 12.0594 0 12.8476C0 13.6358 0.629625 14.2748 1.40625 14.2748H4.43991V27.382C4.43991 28.1702 5.06953 28.8092 5.84616 28.8092H8.8395C9.11213 29.7303 9.60647 30.5742 10.2953 31.2734C11.3924 32.3869 12.8511 33 14.4025 33C15.954 33 17.4126 32.3869 18.5097 31.2734C19.2068 30.5658 19.6885 29.7215 19.9565 28.8249H33.3857C33.6536 29.7215 34.1353 30.5658 34.8324 31.2734C35.9295 32.3869 37.3882 33 38.9396 33C40.4911 33 41.9497 32.3869 43.0468 31.2734C43.7439 30.5658 44.2256 29.7215 44.4936 28.8249H46.5938C47.3704 28.8249 48 28.1859 48 27.3977V17.4715C48 17.101 47.8581 16.7451 47.6042 16.4789ZM43.2757 16.0442H33.3322V10.4392H37.9307L43.2757 16.0442ZM7.25241 14.2747H14.5718C15.3484 14.2747 15.978 13.6357 15.978 12.8475C15.978 12.0593 15.3484 11.4203 14.5718 11.4203H7.25241V8.56451H15.6033C16.3799 8.56451 17.0095 7.9255 17.0095 7.1373C17.0095 6.3491 16.3799 5.71009 15.6033 5.71009H7.25241V2.85433H15.6033H30.559L30.5196 25.9703H20.1004C19.8871 24.8578 19.3569 23.7961 18.5097 22.9362C17.4127 21.8226 15.954 21.2095 14.4025 21.2095C12.8511 21.2095 11.3925 21.8226 10.2953 22.9362C9.47034 23.7735 8.92425 24.8183 8.70403 25.9546H7.25241V14.2747ZM16.521 29.255C15.9551 29.8293 15.2027 30.1456 14.4025 30.1456C13.6024 30.1456 12.8499 29.8293 12.2841 29.255C11.7182 28.6807 11.4066 27.917 11.4066 27.1049C11.4066 26.2926 11.7182 25.5289 12.2841 24.9546C12.8499 24.3803 13.6024 24.064 14.4025 24.064C15.2027 24.064 15.9551 24.3803 16.521 24.9546C17.6891 26.1402 17.6891 28.0694 16.521 29.255ZM41.0579 29.255C40.492 29.8293 39.7396 30.1456 38.9394 30.1456C38.1393 30.1456 37.3868 29.8293 36.821 29.255C35.6528 28.0694 35.6528 26.1403 36.821 24.9547C37.3868 24.3804 38.1393 24.0641 38.9394 24.0641C39.7396 24.0641 40.492 24.3804 41.0579 24.9547C41.6238 25.529 41.9353 26.2927 41.9353 27.1049C41.9354 27.917 41.6238 28.6807 41.0579 29.255ZM44.6374 25.9704C44.4241 24.8579 43.8939 23.7962 43.0466 22.9363C41.9496 21.8227 40.4909 21.2096 38.9394 21.2096C37.388 21.2096 35.9294 21.8227 34.8323 22.9363C34.0853 23.6945 33.5862 24.6098 33.3321 25.5782V18.8987H45.1875V25.9704H44.6374Z" fill="white"/>
</svg>
